<svg xmlns:xlink="http://www.w3.org/1999/xlink" preserveAspectRatio="none" data-bbox="34 53.2 132 93.6" xmlns="http://www.w3.org/2000/svg" width="200" height="200" viewBox="34 53.2 132 93.6" data-type="shape" role="presentation" aria-hidden="true" aria-label="">
    <g stroke="#5E97FF" fill="#FFFFFF" stroke-width="0px">
        <path d="M39.2 63.6h121.6c2.9 0 5.2-2.3 5.2-5.2s-2.3-5.2-5.2-5.2H39.2c-2.9 0-5.2 2.3-5.2 5.2s2.3 5.2 5.2 5.2z" stroke="#5E97FF" fill="#FFFFFF" stroke-width="0px"></path>
        <path d="M160.8 94.8H39.2c-2.9 0-5.2 2.3-5.2 5.2s2.3 5.2 5.2 5.2h121.6c2.9 0 5.2-2.3 5.2-5.2s-2.3-5.2-5.2-5.2z" stroke="#5E97FF" fill="#FFFFFF" stroke-width="0px"></path>
        <path d="M160.8 136.4H39.2c-2.9 0-5.2 2.3-5.2 5.2s2.3 5.2 5.2 5.2h121.6c2.9 0 5.2-2.3 5.2-5.2s-2.3-5.2-5.2-5.2z" stroke="#5E97FF" fill="#FFFFFF" stroke-width="0px"></path>
    </g>
</svg>